# xmcd
#
# Track frame offsets:
# 150
# 16417
# 29278
# 46933
# 58857
# 72986
# 93114
# 108925
# 122485
# 142428
# 156603
# 167740
#
# Disc length: 2468 seconds
#
#
# Revision: 1
# Processed by: cddbd v1.5PL3 Copyright (c) Steve Scherf et al.
# Submitted via: FreeRIP 2.35 
#
DISCID=a709a20c
DTITLE=Pancho Barraza - El Vagabundo Que Te Ama
DYEAR=1998
DGENRE=Other
TTITLE0=Por Amor Y Fe
TTITLE1=Muchachita Labios Rojos
TTITLE2=Mi Enemigo El Amor
TTITLE3=Ojala Sea Cierto
TTITLE4=De Frente Al Mar
TTITLE5=Aquella Morena
TTITLE6=Al Final De Tu Camino
TTITLE7=Historia De Amores
TTITLE8=Una Lagrima De Orgullo
TTITLE9=Mi Triste Copa
TTITLE10=El Vagabundo Que Te Ama
TTITLE11=Dale Dale
EXTD=
EXTT0=
EXTT1=
EXTT2=
EXTT3=
EXTT4=
EXTT5=
EXTT6=
EXTT7=
EXTT8=
EXTT9=
EXTT10=
EXTT11=
PLAYORDER=
